<?xml version="1.0" encoding="utf-8"?>
<!-- Generator: Adobe Adobe Illustrator 24.2.0, SVG Export Plug-In . SVG Version: 6.00 Build 0)  -->
<svg version="1.1" xmlns="http://www.w3.org/2000/svg" xmlns:xlink="http://www.w3.org/1999/xlink" x="0px" y="0px"
	 viewBox="157 29 527 421" style="enable-background:new 0 0 841.89 595.28;" xml:space="preserve">
<style type="text/css">
	path{fill:#2a2019;}
</style>
<g id="Layer_1">
	<g>
		<path d="M228.09,384.63c16-2.07,31.29-5.77,46.72-8.95c9.98-2.05,19.79-4.91,29.87-6.38c14.03-2.06,28.15-3.59,42.22-5.39
			c13.08-1.68,25.71,0.07,37.95,4.57c5.97,2.2,11.25,5.68,15.99,9.62c7.15,5.95,13.8,12.45,20.67,18.71
			c1.39,1.26,1.41,1.24,0.8,4.35c-5.14-1.95-9.66-4.75-13.87-7.9c-15.19-11.37-32.27-17.23-51.68-16.13
			c-11.97,0.68-23.5,4.38-35.35,5.53c-19.17,1.87-37.99,5.87-57.15,7.72c-11.22,1.08-22.31,3.23-33.62,3.75
			c-10.56,0.49-20.96-0.21-31.19-2.84c-2.28-0.58-4.61-0.96-6.98-1.85C204.26,387.92,216.22,387.62,228.09,384.63z"/>
		<path d="M488.51,328.81c-9.1,5.7-18.69,9.79-28.4,13.7c-7.08,2.85-13.92,6.27-21.56,7.6c-9.37,1.63-18.57,0.18-27.92-0.83
			c-15.72-1.69-29.04-9.93-43.84-13.95c-7.54-2.05-14.5-5.47-21.85-7.98c-5.34-1.82-9.49-5.72-13.87-8.93
			c-7.31-5.37-14.36-11.18-20.53-17.88c-8.39-9.1-13.89-19.65-17.12-31.42c-1.34-4.88-3.29-9.63-4.38-14.55
			c-3.81-17.15-7.82-34.31-10.06-51.7c-1.62-12.64-2.83-25.37-4.07-38.07c-1.85-18.88-4.12-37.74-3.3-56.78
			c0.22-5.09,0.83-10.13,3.14-14.75c3.69-7.36,12.61-9.23,19.22-4.09c5.08,3.95,10.78,7.08,15.53,11.45
			c0.79,0.73,2.03,0.99,3.5,1.68c1.11-9.59,5.36-17.71,9.73-25.7c3.04-5.56,9.82-12.08,18.01-9.32c2.81,0.95,5.33,0.01,7.94-0.89
			c7.13-2.45,13.93-2.52,19.99,2.81c2.49,2.19,5.26,4.07,8.26,6.36c1.22-2.21,2.65-4.28,3.58-6.54
			c4.46-10.84,12.49-18.58,22.81-23.91c4.77-2.47,10.43-1.24,15.71-0.58c2.06,0.25,4.23,0.96,6.18,0.6
			c9.69-1.78,17.27,2.85,24.54,7.74c5.49,3.7,11.08,7.42,15.53,12.45c3.42,3.87,5.26,8.46,7.34,12.81
			c-0.92,0.77-1.47,0.69-1.88,0.37c-5.58-4.31-12.44-6.51-17.96-11.2c-4.97-4.21-10.42-8.28-16.63-10.99
			c-2.41-1.05-4.74-1.65-7.51-1.19c-4.15,0.68-8.3,0.04-12.3-1.32c-5.56-1.89-10.04-0.64-14.68,3.13
			c-7.94,6.44-14.93,13.74-22.3,21.05c5.63,6.77,13.23,11.87,17.16,20.35c1.55,0.31,2.81-1.26,4.36-1.99
			c9.34-4.4,18.98-7.74,29.54-6.5c9.34,1.09,17.79,4.47,24.9,11.13c1.71-2.5,3.25-4.92,4.97-7.22c8.24-11.06,18.31-20.4,30.35-27.26
			c6.73-3.83,14.45-2.89,21.67,0.58c9.81,4.72,14.59,13.27,18.77,22.38c0.41,0.9,0.92,1.77,1.67,3.2c1.32-4.01,3.8-6.78,5.51-10.01
			c2.31-4.35,5.61-7.8,11.08-7.82c5.45-0.01,8.35,3.94,10.58,7.9c4.09,7.25,5.82,15.37,7.53,23.36c4.27,20.06,3.51,40.3,0.47,60.39
			c-2.21,14.59-4.62,29.2-9.05,43.39c-3.13,10.02-6.45,19.96-9.99,29.86c-3.4,9.53-7.08,18.95-10.96,28.28
			c-5.17,12.42-11.81,24.15-20.25,34.74c-5.51,6.92-11.41,13.57-18.92,18.77C495.41,323.83,492.33,326.59,488.51,328.81z
			 M344.05,237.02c0.29,6.19,0.08,12.44,0.98,18.54c2.41,16.37,6.04,32.53,11.02,48.35c1.73,5.49,3.05,11.17,6.13,16.28
			c5.09,8.44,13.26,12.73,21.93,16.75c11.15,5.17,22.97,8.21,34.98,10.16c7.83,1.27,15.96,1.29,23.14-4.01
			c4.23-3.13,8.55-6.14,12.56-9.55c11.67-9.94,22.13-20.65,28.82-34.68c5.53-11.59,9.43-23.56,11.5-36.03
			c1.96-11.82,2.91-23.81,4.19-35.73c1.68-15.73,3.33-31.49,1.34-47.29c-1.09-8.65-2.97-17.16-7.82-24.77
			c-2.95-4.63-6.35-8.87-9.84-13.12c-5.33-6.51-11.1-12.66-17.26-18.28c-6.18-5.63-12.63-11.07-19.14-16.4
			c-10.56-8.66-24.74-8.51-35.42-3.3c-12.08,5.9-22.89,13.79-33.24,22.22c-6.62,5.38-12.59,11.51-17.59,18.23
			c-4.41,5.93-7.68,12.68-9.53,20.1c-2.27,9.09-5.32,18.07-5.8,27.41C344.25,206.66,343.34,221.46,344.05,237.02z M480.94,123.55
			c2.85,4.54,6.95,8.12,10.55,11.99c12.08,12.98,19.29,28.08,20.36,45.28c1.18,18.93,0.57,37.95-2.58,56.79
			c-1.59,9.47-3.13,18.98-4.08,28.52c-1.16,11.65-5.38,22.42-10.19,32.82c-4.24,9.15-10.64,17.18-18.19,24.34
			c-2.73,2.59-6.35,4.28-8.76,7.84c8.03-3.16,14.89-7.53,20.9-12.7c6.34-5.45,12.29-11.4,17.28-18.26
			c4.88-6.71,9.22-13.59,13.11-20.88c6.45-12.07,10.7-24.87,14.88-37.76c5.47-16.87,10.15-33.91,14.01-51.2
			c5.77-25.85,9.62-51.75,5.58-78.22c-1.01-6.61-2.67-13.06-5.19-19.77c-1.17,1.66-2.1,2.85-2.87,4.12
			c-4.8,7.93-11.09,14.41-18.87,19.73c-9.39,6.42-19.81,11.62-27.19,20.58c-0.38,0.46-0.91,0.9-1.77,0.64
			c-0.34-1.71,0.51-3.21,1.34-4.55c4.03-6.49,9.04-12.35,14.68-17.44c6.76-6.09,11.84-13.24,16.87-20.65
			c-8.04-7.04-16.53-13.22-25.4-18.92c-3.14-2.02-6.42-2.15-9.59-0.38c-3.92,2.19-8,4.3-11.44,7.11
			c-8.38,6.84-16.44,14.06-24.9,21.35C466.5,110.32,473.53,116.73,480.94,123.55z M321.55,291.43c8.27,8.69,17.96,15.64,28.06,22.15
			c-1.31-6.94-4.27-13.11-5.86-19.78c-2.25-9.44-5.38-18.65-7.18-28.27c-2.85-15.22-4.87-30.49-5.29-45.92
			c-0.6-21.68,0.54-43.24,7.24-64.16c0.61-1.91-0.5-2.91-1.68-3.84c-0.89-0.7-2.06-1.06-3.07-1.62c-6.96-3.8-12.21-9.74-18.72-14.12
			c-7.14-4.8-13.96-10.12-19.86-16.25c-5.51-5.73-9.14-12.78-10.64-20.66c-0.34-1.81-1.49-3.98,0.86-5.06
			c2.21-1.01,3.26,1.13,4.19,2.53c4.9,7.45,11.46,13.3,18.57,18.64c1.26,0.95,1.93,2.72,4.03,2.69c0-4.38,0-8.65,0-12.55
			c-4.07-2.85-8.7-3.89-12.54-6.62c-3.31-2.34-6.84-4.54-11.05-5.42c-3.71-0.77-6.14,0.38-6.91,4.01c-0.52,2.46-0.82,5-0.94,7.51
			c-0.43,9.13,0.41,18.18,1.51,27.24c1.59,13.16,3.85,26.24,5.36,39.42c1.43,12.41,4.83,24.6,6.19,37.01
			c1.56,14.28,6.05,27.88,8.7,41.89c1.2,6.34,4.09,12.26,5.91,18.45C310.91,277.15,315.34,284.44,321.55,291.43z M338.72,140.19
			c1.19,1.93,2.39,3.86,3.79,6.13c12.23-20.44,30.8-33.84,50.78-45.86c-3.15-4.16-7.53-6.27-11.21-9.18
			c-6.75-5.33-13.54-10.5-21.74-13.71c-2.66-1.04-4.9-1.23-7.41,0.05c-4.07,2.07-8.51,2.88-12.84,1.4
			c-4.13-1.41-6.46,0.43-8.45,3.31c-1.06,1.54-1.58,3.43-2.54,5.06c-5.96,10.1-8.71,21.3-11.88,32.36
			c-0.42,1.48-0.08,2.38,1.08,3.26c5.51,4.17,10.9,8.48,16.53,12.48C336.5,136.67,337.77,137.86,338.72,140.19z"/>
		<path d="M266.65,402.18c20.44-0.89,40.48-2.07,60.54-2.56c12.48-0.31,24.99,0.31,37.48,0.73c7.56,0.25,15.16,0.66,22.49,2.65
			c3.62,0.98,7.6,1.52,10.09,4.8c1.6,2.11,3.1,4.48,2.51,7c-0.93,3.91,1.1,3.92,4.2,4.16c10.36,0.82,20.7,1.16,31.08,0.71
			c3.18-0.14,4.81-0.89,4.7-4.43c-0.14-4.7,2.6-7.96,7-10.18c7.22-3.64,15.09-3.92,22.9-4.15c25.8-0.76,51.62-1.65,77.41-0.77
			c23.49,0.81,46.94,2.91,70.42,4.13c8.75,0.45,17.51,1.19,26.3,0.94c7.86-0.22,15.65,0.71,23.45,1.53
			c0.78,0.08,1.62,0.05,2.22,1.13c-0.8,1.43-2.31,1.49-3.87,1.64c-14.3,1.35-28.67,1.58-43,2.02c-17.28,0.53-34.62,0.39-51.84,1.27
			c-33.75,1.73-67.55,0.97-101.28,2.83c-3.66,0.2-7.31,0.68-10.99,1.04c2.33,10.68-2.72,16.22-13.95,17.3
			c-12.22,1.17-24.38,2.04-36.59,0.52c-5.13-0.64-10.36-0.19-15.42-1.55c-8.01-2.14-11.27-5.6-11.9-13.38
			c-0.17-2.1-1.32-2.42-3.03-2.69c-7.89-1.24-15.87-1.75-23.83-1.98c-41.21-1.2-82.42-2.74-123.67-2.66
			c-17.28,0.03-34.56-0.83-51.84-1.36c-2.12-0.07-5.67,0.5-5.78-1.78c-0.13-2.77,3.58-1.72,5.49-2c6.03-0.88,12.14-1.67,18.22-1.75
			C219.57,405.01,242.89,403.08,266.65,402.18z"/>
		<path d="M551.98,372.69c16.63,3.48,32.83,7.59,49.3,10.07c13.71,2.06,27.23,5.79,41.32,5.42c2.06-0.05,4.14,0.54,6.69,0.91
			c-2.38,2.35-5.1,1.41-7.38,2c-18.7,4.83-37.34,2.21-56.16,0.37c-19.41-1.9-38.37-6.47-57.9-7.73c-10.52-0.68-20.89-3.48-31.31-5.4
			c-15.2-2.81-29.72-1.16-43.97,4.82c-8.02,3.37-14.67,8.44-21.7,13.13c-2.37,1.58-5,2.81-7.52,4.17c-0.78,0.42-1.61,0.4-2.11-0.35
			c-0.7-1.07-0.04-1.91,0.74-2.67c4.24-4.15,8.4-8.38,12.73-12.44c5.01-4.69,10.43-8.88,16.46-12.44
			c9.25-5.47,19.26-8.37,30.02-8.77c16.97-0.64,33.56,2.58,50.26,4.74C538.31,369.42,545.02,370.85,551.98,372.69z"/>
	</g>
</g>

</svg>
